<svg version="1.2" xmlns="http://www.w3.org/2000/svg" viewBox="0 0 4096 4096" width="4096" height="4096">
	<title>logo-final-cyan-color-light-big (1)-svg</title>
	<style>
		.s0 { fill: #333333 } 
		.s1 { fill: #00cccc } 
	</style>
	<g>
		<g id="Layer_1">
			<g>
				<path class="s0" d="m1565.1 2661.4l-1440.3 1372.8h-2.3v-612.1l139.5-126.1 965.5-942.9 337.6 308.3z"/>
				<path fill-rule="evenodd" class="s0" d="m2035.5 3129.5c-240.8 0-474.9-78.8-666.2-229.6-229.5-177.8-375.8-436.6-411.8-724.6-36.1-288.1 42.7-573.9 222.8-803.5 177.8-229.5 436.6-375.8 724.6-411.8 290.4-36 573.9 42.7 803.5 222.8 229.5 177.8 375.8 436.6 411.8 724.6 36 288.1-42.7 573.9-222.8 803.5-177.8 229.5-436.6 375.8-724.7 411.8-45 6.8-90 9-137.2 9zm2.2-1615.8c-22.5 0-42.7 0-65.2 4.5-139.6 18-263.4 87.7-351.1 198-85.6 110.3-123.8 247.6-108.1 387.1 18 139.5 87.8 263.3 198.1 351.1 110.3 85.5 247.5 123.8 389.3 108 139.6-18 263.3-87.8 351.1-198 85.5-110.3 123.8-247.6 108-387.1-18-139.6-87.7-263.3-198-351.1-92.3-72-204.8-110.3-321.8-110.3z"/>
				<g>
				</g>
				<g>
				</g>
				<path class="s1" d="m3853.9 1266c-103.5-243-249.8-456.8-432.1-641.4-184.5-184.5-398.3-328.5-641.4-434.3-243.1-103.5-504.1-155.3-780.9-155.3h-1908.5v2887.4l598.6-571.6v-1719.4h1307.6c195.8 0 378.1 36 549.1 110.3 168.8 72 319.6 175.5 452.4 303.8 130.5 130.5 231.8 281.3 306.1 452.4 72 171 110.2 353.3 110.2 549.1 0 195.8-36 378.1-110.2 549.1-72 171.1-175.6 321.8-306.1 452.4q-195.8 195.8-452.4 303.8c-168.8 72-353.3 110.3-549.1 110.3h-765.2l-625.6 598.6h1388.6c276.8 0 537.8-51.7 780.9-157.5 243.1-103.5 456.9-249.8 641.4-434.4q276.8-276.8 432.1-641.4c103.5-243 155.3-501.9 155.3-780.9 0-279.1-51.8-537.9-155.3-781z"/>
			</g>
		</g>
	</g>
</svg>