<?xml version="1.0" encoding="UTF-8"?>
<svg xmlns="http://www.w3.org/2000/svg" version="1.1" viewBox="0 0 1024 1024">
  <defs>
    <style>
      .cls-1 {
        fill: #fff;
      }

      .cls-2 {
        fill: #333;
      }

      .cls-3 {
        display: none;
      }

      .cls-4 {
        fill: #0cc;
      }
    </style>
  </defs>
  <!-- Generator: Adobe Illustrator 28.6.0, SVG Export Plug-In . SVG Version: 1.2.0 Build 709)  -->
  <g>
    <g id="Layer_1" class="cls-3">
      <g>
        <polygon class="cls-1" points="402.1 651 76 962.2 75.6 961.8 75.6 823.4 106.8 795.1 325.3 581.4 402.1 651"/>
        <path class="cls-1" d="M508.4,757.2c-54.6,0-107.3-18-151.1-52.1-51.9-40.4-85-98.8-93.1-164.1s9.7-129.9,50.2-181.9c40.5-51.9,98.8-85,164.1-93.1,65.5-8,130,9.7,181.9,50.2,51.9,40.5,85,98.8,93.1,164.1,8.1,65.4-9.7,129.9-50.2,181.9h0c-40.5,51.9-98.8,85-164.1,93.1-10.3,1.3-20.6,1.9-30.8,1.9ZM509.1,391.5c-4.9,0-9.9.3-14.9.9-31.6,3.9-59.7,19.9-79.3,45-19.6,25.1-28.2,56.3-24.3,87.9,3.9,31.6,19.9,59.7,45,79.3,25.1,19.6,56.3,28.2,87.9,24.3,31.6-3.9,59.7-19.9,79.3-45h0c19.6-25.1,28.2-56.3,24.3-87.9-3.9-31.6-19.9-59.7-45-79.3-21.1-16.5-46.6-25.2-73-25.2Z"/>
        <path class="cls-4" d="M920.2,335.2c-23.6-54.9-56.4-103.3-98.1-145.1-41.7-41.9-90-74.6-145.1-98.3-55.1-23.6-114.1-35.4-177-35.4H68.4v653.9l135.4-129.5V191.8h296.2c44.3,0,85.7,8.2,124.1,24.7,38.4,16.5,72.5,39.5,102.2,69,29.7,29.5,52.7,63.6,69.2,102.2,16.5,38.6,24.7,80.1,24.7,124.3s-8.2,85.7-24.7,124.3c-16.5,38.6-39.5,72.7-69.2,102.2-29.7,29.5-63.8,52.5-102.2,69-38.4,16.5-79.8,24.7-124.1,24.7h-173.1l-141.5,135.4h314.6c62.9,0,121.9-11.9,177-35.6,55.1-23.6,103.5-56.4,145.1-98.3,41.7-41.9,74.4-90.3,98.1-145.1,23.6-54.9,35.4-113.7,35.4-176.6s-11.7-121.9-35.4-176.8Z"/>
      </g>
    </g>
    <g id="Layer_1_copy">
      <g>
        <polygon class="cls-2" points="402.1 651 76 962.2 75.6 961.8 75.6 823.4 106.8 795.1 325.3 581.4 402.1 651"/>
        <path class="cls-2" d="M508.4,757.2c-54.6,0-107.3-18-151.1-52.1-51.9-40.4-85-98.8-93.1-164.1s9.7-129.9,50.2-181.9c40.5-51.9,98.8-85,164.1-93.1,65.5-8,130,9.7,181.9,50.2,51.9,40.5,85,98.8,93.1,164.1,8.1,65.4-9.7,129.9-50.2,181.9h0c-40.5,51.9-98.8,85-164.1,93.1-10.3,1.3-20.6,1.9-30.8,1.9ZM509.1,391.5c-4.9,0-9.9.3-14.9.9-31.6,3.9-59.7,19.9-79.3,45-19.6,25.1-28.2,56.3-24.3,87.9,3.9,31.6,19.9,59.7,45,79.3,25.1,19.6,56.3,28.2,87.9,24.3,31.6-3.9,59.7-19.9,79.3-45h0c19.6-25.1,28.2-56.3,24.3-87.9-3.9-31.6-19.9-59.7-45-79.3-21.1-16.5-46.6-25.2-73-25.2Z"/>
        <path class="cls-4" d="M920.2,335.2c-23.6-54.9-56.4-103.3-98.1-145.1-41.7-41.9-90-74.6-145.1-98.3-55.1-23.6-114.1-35.4-177-35.4H68.4v653.9l135.4-129.5V191.8h296.2c44.3,0,85.7,8.2,124.1,24.7,38.4,16.5,72.5,39.5,102.2,69,29.7,29.5,52.7,63.6,69.2,102.2,16.5,38.6,24.7,80.1,24.7,124.3s-8.2,85.7-24.7,124.3c-16.5,38.6-39.5,72.7-69.2,102.2-29.7,29.5-63.8,52.5-102.2,69-38.4,16.5-79.8,24.7-124.1,24.7h-173.1l-141.5,135.4h314.6c62.9,0,121.9-11.9,177-35.6,55.1-23.6,103.5-56.4,145.1-98.3,41.7-41.9,74.4-90.3,98.1-145.1,23.6-54.9,35.4-113.7,35.4-176.6s-11.7-121.9-35.4-176.8Z"/>
      </g>
    </g>
  </g>
</svg>