<?xml version="1.0" encoding="UTF-8"?>
<svg xmlns="http://www.w3.org/2000/svg" version="1.1" viewBox="0 0 1024 230.9">
  <defs>
    <style>
      .cls-1 {
        fill: #fff;
      }

      .cls-2 {
        fill: #0cc;
      }
    </style>
  </defs>
  <!-- Generator: Adobe Illustrator 28.6.0, SVG Export Plug-In . SVG Version: 1.2.0 Build 709)  -->
  <g>
    <g id="Layer_1">
      <g>
        <polygon class="cls-1" points="90.4 150.1 26.4 211.1 26.3 211.1 26.3 183.9 32.5 178.3 75.4 136.4 90.4 150.1"/>
        <path class="cls-1" d="M111.3,170.9c-10.7,0-21.1-3.5-29.6-10.2-10.2-7.9-16.7-19.4-18.3-32.2s1.9-25.5,9.9-35.7c7.9-10.2,19.4-16.7,32.2-18.3,12.9-1.6,25.5,1.9,35.7,9.9,10.2,7.9,16.7,19.4,18.3,32.2,1.6,12.8-1.9,25.5-9.9,35.7h0c-7.9,10.2-19.4,16.7-32.2,18.3-2,.3-4,.4-6.1.4ZM111.4,99.1c-1,0-1.9,0-2.9.2-6.2.8-11.7,3.9-15.6,8.8-3.8,4.9-5.5,11-4.8,17.2.8,6.2,3.9,11.7,8.8,15.6,4.9,3.8,11,5.5,17.3,4.8,6.2-.8,11.7-3.9,15.6-8.8h0c3.8-4.9,5.5-11,4.8-17.2-.8-6.2-3.9-11.7-8.8-15.6-4.1-3.2-9.1-4.9-14.3-4.9Z"/>
        <g>
          <path class="cls-1" d="M320.3,79.8h26.6v127.7h-26.7l-1-18.5c-3.7,6.6-8.8,11.8-15.2,15.8-6.4,4-13.9,6-22.6,6s-18.2-1.8-26.4-5.3c-8.3-3.5-15.5-8.5-21.8-14.8-6.3-6.3-11.1-13.6-14.6-21.8-3.5-8.2-5.2-17-5.2-26.5s1.7-17.7,5.1-25.7c3.4-8,8.1-15.1,14.2-21.1,6-6,13.1-10.8,21-14.2,8-3.5,16.5-5.2,25.6-5.2s17.5,2.1,24.6,6.3c7.1,4.2,13,9.6,17.7,16.2l-1.2-18.9ZM280.7,185.2c7.5,0,14.1-1.9,19.7-5.6,5.6-3.7,10-8.7,13.1-15,3.1-6.3,4.7-13.3,4.7-21s-1.6-14.8-4.7-21.1c-3.2-6.3-7.5-11.3-13.1-15-5.6-3.7-12.1-5.6-19.6-5.6s-14.2,1.9-20.3,5.6c-6.1,3.7-11,8.8-14.6,15.1-3.6,6.3-5.4,13.3-5.4,20.9s1.9,14.8,5.6,21c3.7,6.3,8.6,11.2,14.7,14.9s12.8,5.6,20,5.6Z"/>
          <path class="cls-1" d="M374.9,207.5v-127.7h26.6v13.5c4.4-5.3,9.9-9.5,16.4-12.5,6.5-3.1,13.5-4.6,20.9-4.6s9.5.6,14.2,1.9l-10.6,26.8c-3.3-1.3-6.6-1.9-10-1.9-5.6,0-10.8,1.4-15.5,4.2-4.7,2.8-8.4,6.5-11.2,11.2-2.8,4.7-4.2,9.9-4.2,15.6v73.6h-26.6Z"/>
          <path class="cls-1" d="M539.9,76.2c12.4,0,23.7,3,33.9,9.1,10.2,6,18.3,14.2,24.3,24.3s9.1,21.5,9.1,33.9-1.7,18-5.2,26.1c-3.5,8.1-8.3,15.3-14.5,21.5-6.2,6.2-13.3,11-21.5,14.5-8.1,3.5-16.8,5.2-26.1,5.2s-16.8-2.1-23.4-6.2c-6.7-4.1-12.2-9.4-16.4-15.9v18.8h-26.6V15.9h26.6v82.4c4.3-6.6,9.7-11.9,16.4-16s14.5-6.1,23.4-6.1ZM539.6,185c7.4,0,14.2-1.9,20.3-5.6,6.1-3.7,11-8.8,14.6-15.1,3.6-6.3,5.4-13.2,5.4-20.8s-1.8-14.8-5.5-21.1c-3.7-6.3-8.6-11.3-14.7-15-6.1-3.7-12.9-5.6-20.2-5.6s-13.9,1.9-19.5,5.6c-5.6,3.7-10,8.8-13.2,15.1s-4.7,13.3-4.7,20.9,1.6,14.6,4.7,21,7.5,11.3,13.2,15,12.1,5.6,19.5,5.6Z"/>
          <path class="cls-1" d="M732.1,79.8h26.6v127.7h-26.7l-1-18.5c-3.7,6.6-8.8,11.8-15.2,15.8-6.4,4-13.9,6-22.6,6s-18.2-1.8-26.4-5.3c-8.3-3.5-15.5-8.5-21.8-14.8-6.3-6.3-11.1-13.6-14.6-21.8-3.5-8.2-5.2-17-5.2-26.5s1.7-17.7,5.1-25.7c3.4-8,8.1-15.1,14.2-21.1,6-6,13-10.8,21-14.2,8-3.5,16.5-5.2,25.6-5.2s17.5,2.1,24.6,6.3c7.1,4.2,13,9.6,17.7,16.2l-1.1-18.9ZM692.5,185.2c7.5,0,14.1-1.9,19.7-5.6,5.6-3.7,10-8.7,13.1-15,3.1-6.3,4.7-13.3,4.7-21s-1.6-14.8-4.7-21.1-7.5-11.3-13.1-15c-5.6-3.7-12.1-5.6-19.6-5.6s-14.2,1.9-20.3,5.6c-6.1,3.7-11,8.8-14.6,15.1s-5.4,13.3-5.4,20.9,1.9,14.8,5.6,21c3.7,6.3,8.6,11.2,14.7,14.9s12.8,5.6,20,5.6Z"/>
          <path class="cls-1" d="M901.8,127.4v80.1h-26.6v-73.6c0-5.7-1.4-10.9-4.1-15.6-2.8-4.7-6.5-8.4-11.1-11.2-4.6-2.8-9.9-4.2-15.6-4.2s-10.8,1.4-15.5,4.2c-4.7,2.8-8.4,6.5-11.2,11.2-2.8,4.7-4.2,9.9-4.2,15.6v73.6h-26.6v-127.7h26.6v13.5c4.4-5.3,9.9-9.5,16.4-12.5s13.5-4.6,21-4.6,18.1,2.3,25.8,6.9c7.7,4.6,13.9,10.8,18.5,18.5,4.6,7.7,6.8,16.4,6.8,25.8Z"/>
        </g>
        <g>
          <path class="cls-2" d="M913.1,211.4c-1.3,0-2.4-.5-3.3-1.4-.9-.9-1.4-2-1.4-3.4s.5-2.4,1.4-3.3c.9-.9,2-1.4,3.3-1.4s2.5.5,3.4,1.4c.9.9,1.4,2,1.4,3.3s-.5,2.5-1.4,3.4-2,1.4-3.4,1.4Z"/>
          <path class="cls-2" d="M971.2,159h8.6v51.1h-8.6l-.4-8.6c-1.6,3-3.8,5.4-6.6,7.2-2.8,1.8-6.2,2.8-10,2.8s-7.3-.7-10.5-2.1c-3.3-1.4-6.2-3.4-8.7-5.9-2.5-2.5-4.5-5.4-5.9-8.7-1.4-3.3-2.1-6.8-2.1-10.6s.7-7.1,2-10.3c1.4-3.2,3.3-6.1,5.7-8.5s5.3-4.3,8.5-5.7c3.2-1.4,6.6-2.1,10.3-2.1s7.5,1,10.6,2.8c3,1.9,5.5,4.3,7.4,7.3l-.3-8.7ZM954,203.1c3.4,0,6.3-.8,8.8-2.5,2.5-1.7,4.4-3.9,5.7-6.7,1.3-2.8,2-5.9,2-9.3s-.7-6.6-2-9.4c-1.4-2.8-3.3-5-5.8-6.7-2.5-1.7-5.4-2.5-8.7-2.5s-6.4.8-9.2,2.5c-2.8,1.7-4.9,3.9-6.6,6.7-1.6,2.8-2.4,5.9-2.4,9.4s.8,6.6,2.5,9.4c1.7,2.8,3.9,5,6.6,6.7,2.8,1.6,5.8,2.5,9,2.5Z"/>
          <path class="cls-2" d="M994.4,150.7c-1.4,0-2.5-.4-3.4-1.3-.9-.9-1.4-2-1.4-3.3s.5-2.4,1.4-3.3c.9-.9,2-1.3,3.4-1.3s2.5.4,3.4,1.3c.9.9,1.4,2,1.4,3.3s-.5,2.4-1.4,3.3c-.9.9-2,1.3-3.3,1.3ZM990,159h8.6v51.1h-8.6v-51.1Z"/>
        </g>
        <path class="cls-2" d="M192.1,88.1c-4.6-10.8-11.1-20.3-19.2-28.5-8.2-8.2-17.7-14.6-28.5-19.3-10.8-4.6-22.4-6.9-34.7-6.9H24.9v128.3l26.6-25.4V59.9h58.1c8.7,0,16.8,1.6,24.4,4.9,7.5,3.2,14.2,7.8,20.1,13.5,5.8,5.8,10.3,12.5,13.6,20.1,3.2,7.6,4.9,15.7,4.9,24.4s-1.6,16.8-4.9,24.4c-3.2,7.6-7.8,14.3-13.6,20.1-5.8,5.8-12.5,10.3-20.1,13.5-7.5,3.2-15.7,4.9-24.4,4.9h-34l-27.8,26.6h61.7c12.3,0,23.9-2.3,34.7-7,10.8-4.6,20.3-11.1,28.5-19.3,8.2-8.2,14.6-17.7,19.2-28.5,4.6-10.8,6.9-22.3,6.9-34.7s-2.3-23.9-6.9-34.7Z"/>
      </g>
    </g>
  </g>
</svg>